<?xml version="1.0" standalone="no"?>
<!DOCTYPE svg PUBLIC "-//W3C//DTD SVG 1.1//EN" "http://www.w3.org/Graphics/SVG/1.1/DTD/svg11.dtd" >
<svg xmlns="http://www.w3.org/2000/svg">
<metadata>Generated by IcoMoon</metadata>
<defs>
<font id="icomoon" horiz-adv-x="1024">
<font-face units-per-em="1024" ascent="960" descent="-64" />
<missing-glyph horiz-adv-x="1024" />
<glyph unicode="&#x20;" horiz-adv-x="512" d="" />
<glyph unicode="&#xe900;" glyph-name="poly-screen-11" d="M0 960h1024v-1024h-1024v1024z" />
<glyph unicode="&#xe901;" glyph-name="poly-screen-21" d="M496 627.2h-496v-352h496v352zM1024 627.2h-496v-352h496v352z" />
<glyph unicode="&#xe902;" glyph-name="poly-screen-22" d="M761.6 432h-499.2v-496h496v496h3.2zM761.6 960h-499.2v-496h496v496h3.2z" />
<glyph unicode="&#xe903;" glyph-name="poly-screen-23" d="M0 960h1024v-502.4h-1024v502.4zM0 438.4h1024v-502.4h-1024v502.4z" />
<glyph unicode="&#xe904;" glyph-name="poly-screen-24" d="M521.6 960h502.4v-1024h-502.4v1024zM0 960h502.4v-1024h-502.4v1024z" />
<glyph unicode="&#xe905;" glyph-name="poly-screen-25" d="M496 697.6h-496v-496h496v496zM1024 697.6h-496v-496h496v496z" />
<glyph unicode="&#xe906;" glyph-name="poly-screen-31" d="M496 432h-496v-496h496v496zM1024 960h-1024v-496h1024v496zM1024 432h-496v-496h496v496z" />
<glyph unicode="&#xe907;" glyph-name="poly-screen-32" d="M528 464h496v496h-496v-496zM-3.2-64h1027.2v496h-1027.2v-496zM0 464h496v496h-496v-496z" />
<glyph unicode="&#xe908;" glyph-name="poly-screen-33" d="M528 432v-496h496v496h-496zM0 960v-1024h496v1024h-496zM528 960v-496h496v496h-496z" />
<glyph unicode="&#xe909;" glyph-name="poly-screen-34" d="M384 841.6h-384v-384h384v384zM793.6 841.6h-384v-384h384v384zM1024 438.4h-1024v-384h1024v384z" />
<glyph unicode="&#xe90a;" glyph-name="poly-screen-35" d="M614.4 841.6h-384v-384h384v384zM1024 841.6h-384v-384h384v384zM1024 438.4h-1024v-384h1024v384z" />
<glyph unicode="&#xe90b;" glyph-name="poly-screen-36" d="M640 54.4h384v384h-384v-384zM230.4 54.4h384v384h-384v-384zM0 457.6h1024v384h-1024v-384z" />
<glyph unicode="&#xe90c;" glyph-name="poly-screen-37" d="M409.6 54.4h384v384h-384v-384zM0 54.4h384v384h-384v-384zM0 457.6h1024v384h-1024v-384z" />
<glyph unicode="&#xe90d;" glyph-name="poly-screen-41" d="M496 960h-496v-496h496v496zM1024 960h-496v-496h496v496zM496 432h-496v-496h496v496zM1024 432h-496v-496h496v496z" />
<glyph unicode="&#xe90e;" glyph-name="poly-screen-42" d="M326.4 812.8h-326.4v-326.4h326.4v326.4zM675.2 812.8h-326.4v-326.4h326.4v326.4zM1024 812.8h-326.4v-326.4h326.4v326.4zM1024 467.2h-1024v-384h1024v384z" />
<glyph unicode="&#xe90f;" glyph-name="poly-screen-43" d="M876.8 633.6v326.4h-326.4v-326.4h326.4zM876.8 284.8v326.4h-326.4v-326.4h326.4zM876.8-64v326.4h-326.4v-326.4h326.4zM531.2-64v1024h-384v-1024h384z" />
<glyph unicode="&#xe910;" glyph-name="poly-screen-44" d="M697.6 83.2h326.4v326.4h-326.4v-326.4zM348.8 83.2h326.4v326.4h-326.4v-326.4zM0 83.2h326.4v326.4h-326.4v-326.4zM0 428.8h1024v384h-1024v-384z" />
<glyph unicode="&#xe911;" glyph-name="poly-screen-45" d="M614.4 841.6h-384v-384h384v384zM1024 841.6h-384v-384h384v384zM496 438.4h-496v-384h496v384zM1024 438.4h-496v-384h496v384z" />
<glyph unicode="&#xe912;" glyph-name="poly-screen-46" d="M384 841.6h-384v-384h384v384zM793.6 841.6h-384v-384h384v384zM496 438.4h-496v-384h496v384zM1024 438.4h-496v-384h496v384z" />
<glyph unicode="&#xe913;" glyph-name="poly-screen-47" d="M640 54.4h384v384h-384v-384zM230.4 54.4h384v384h-384v-384zM528 457.6h496v384h-496v-384zM0 457.6h496v384h-496v-384z" />
<glyph unicode="&#xe914;" glyph-name="poly-screen-48" d="M409.6 54.4h384v384h-384v-384zM0 54.4h384v384h-384v-384zM528 457.6h496v384h-496v-384zM0 457.6h496v384h-496v-384z" />
<glyph unicode="&#xe915;" glyph-name="poly-screen-49" d="M368 828.8h-368v-368h368v368zM761.6 828.8h-371.2v-368h368v368h3.2zM368 435.2h-368v-368h368v368zM761.6 435.2h-371.2v-368h368v368h3.2z" />
<glyph unicode="&#xe916;" glyph-name="poly-screen-51" d="M6.4 953.6h665.6v-668.8h-665.6v668.8zM684.8 614.4h329.6v-326.4h-329.6v326.4zM684.8 953.6h329.6v-326.4h-329.6v326.4zM348.8 272h326.4v-329.6h-326.4v329.6zM688 272h326.4v-329.6h-326.4v329.6zM6.4 272h326.4v-329.6h-326.4v329.6z" />
<glyph unicode="&#xe917;" glyph-name="poly-screen-52" d="M16 953.6h736v-1011.2h-736v1011.2zM761.6 700.8h246.4v-243.2h-246.4v243.2zM761.6 953.6h246.4v-243.2h-246.4v243.2zM761.6 444.8h243.2v-246.4h-243.2v246.4zM761.6 188.8h243.2v-246.4h-243.2v246.4z" />
<glyph unicode="&#xe918;" glyph-name="poly-screen-53" d="M6.4 688h1011.2v-736h-1011.2v736zM259.2 944h243.2v-246.4h-243.2v246.4zM6.4 944h243.2v-246.4h-243.2v246.4zM515.2 940.8h246.4v-243.2h-246.4v243.2zM771.2 940.8h246.4v-243.2h-246.4v243.2z" />
<glyph unicode="&#xe919;" glyph-name="poly-screen-54" d="M6.4 944h1011.2v-736h-1011.2v736zM521.6 198.4h243.2v-246.4h-243.2v246.4zM774.4 198.4h243.2v-246.4h-243.2v246.4zM265.6 198.4h246.4v-243.2h-246.4v243.2zM6.4 198.4h246.4v-243.2h-246.4v243.2z" />
<glyph unicode="&#xe91a;" glyph-name="poly-screen-55" d="M16 953.6h736v-752h-736v752zM761.6 700.8h246.4v-243.2h-246.4v243.2zM761.6 953.6h246.4v-243.2h-246.4v243.2zM761.6 444.8h246.4v-243.2h-246.4v243.2zM265.6 188.8h236.8v-246.4h-236.8v246.4zM16 188.8h236.8v-246.4h-236.8v246.4zM512 188.8h240v-246.4h-240v246.4zM761.6 188.8h243.2v-246.4h-243.2v246.4z" />
<glyph unicode="&#xe91b;" glyph-name="poly-screen-91" d="M6.4 953.6h329.6v-329.6h-329.6v329.6zM345.6 953.6h329.6v-329.6h-329.6v329.6zM684.8 953.6h329.6v-329.6h-329.6v329.6zM6.4 614.4h329.6v-329.6h-329.6v329.6zM345.6 614.4h329.6v-329.6h-329.6v329.6zM684.8 614.4h329.6v-329.6h-329.6v329.6zM6.4 275.2h329.6v-329.6h-329.6v329.6zM345.6 275.2h329.6v-329.6h-329.6v329.6zM684.8 275.2h329.6v-329.6h-329.6v329.6z" />
<glyph unicode="&#xe91c;" glyph-name="poly-screen-92" d="M6.4 953.6h246.4v-246.4h-246.4v246.4zM6.4 691.2h1014.4v-476.8h-1014.4v476.8zM259.2 953.6h246.4v-246.4h-246.4v246.4zM515.2 953.6h246.4v-246.4h-246.4v246.4zM771.2 953.6h246.4v-246.4h-246.4v246.4zM6.4 185.6h246.4v-246.4h-246.4v246.4zM259.2 185.6h246.4v-246.4h-246.4v246.4zM515.2 185.6h246.4v-246.4h-246.4v246.4zM771.2 185.6h246.4v-246.4h-246.4v246.4z" />
<glyph unicode="&#xe91d;" glyph-name="poly-screen-93" d="M6.4 940.8h246.4v-246.4h-246.4v246.4zM6.4 403.2h1014.4v-448h-1014.4v448zM259.2 940.8h246.4v-246.4h-246.4v246.4zM515.2 940.8h246.4v-246.4h-246.4v246.4zM771.2 940.8h246.4v-246.4h-246.4v246.4zM6.4 675.2h246.4v-246.4h-246.4v246.4zM259.2 675.2h246.4v-246.4h-246.4v246.4zM515.2 675.2h246.4v-246.4h-246.4v246.4zM771.2 675.2h246.4v-246.4h-246.4v246.4z" />
<glyph unicode="&#xe91e;" glyph-name="poly-screen-94" d="M774.4 201.6h246.4v-246.4h-246.4v246.4zM6.4 940.8h1014.4v-448h-1014.4v448zM518.4 201.6h246.4v-246.4h-246.4v246.4zM262.4 201.6h246.4v-246.4h-246.4v246.4zM6.4 201.6h246.4v-246.4h-246.4v246.4zM774.4 467.2h246.4v-246.4h-246.4v246.4zM518.4 467.2h246.4v-246.4h-246.4v246.4zM262.4 467.2h246.4v-246.4h-246.4v246.4zM6.4 467.2h246.4v-246.4h-246.4v246.4z" />
<glyph unicode="&#xe91f;" glyph-name="poly-screen-95" d="M12.8 828.8h492.8v-499.2h-492.8v499.2zM521.6 828.8h240v-243.2h-240v243.2zM774.4 828.8h240v-243.2h-240v243.2zM521.6 569.6h240v-243.2h-240v243.2zM774.4 569.6h240v-243.2h-240v243.2zM521.6 310.4h240v-243.2h-240v243.2zM774.4 310.4h240v-243.2h-240v243.2zM12.8 310.4h240v-243.2h-240v243.2zM265.6 310.4h240v-243.2h-240v243.2z" />
<glyph unicode="&#xe920;" glyph-name="poly-screen-101" d="M518.4 182.4h233.6v-236.8h-233.6v236.8zM768 182.4h233.6v-236.8h-233.6v236.8zM19.2 182.4h233.6v-236.8h-233.6v236.8zM268.8 182.4h233.6v-236.8h-233.6v236.8zM518.4 950.4h233.6v-236.8h-233.6v236.8zM768 950.4h233.6v-236.8h-233.6v236.8zM19.2 950.4h233.6v-236.8h-233.6v236.8zM268.8 950.4h233.6v-236.8h-233.6v236.8zM518.4 694.4h233.6v-236.8h-233.6v236.8zM768 694.4h233.6v-236.8h-233.6v236.8zM19.2 694.4h233.6v-236.8h-233.6v236.8zM268.8 694.4h233.6v-236.8h-233.6v236.8zM518.4 438.4h233.6v-236.8h-233.6v236.8zM768 438.4h233.6v-236.8h-233.6v236.8zM19.2 438.4h233.6v-236.8h-233.6v236.8zM268.8 438.4h233.6v-236.8h-233.6v236.8z" />
<glyph unicode="&#xe921;" glyph-name="poly-screen-102" d="M416 182.4h185.6v-236.8h-185.6v236.8zM614.4 182.4h185.6v-236.8h-185.6v236.8zM19.2 182.4h185.6v-236.8h-185.6v236.8zM217.6 182.4h185.6v-236.8h-185.6v236.8zM416 950.4h185.6v-236.8h-185.6v236.8zM614.4 950.4h185.6v-236.8h-185.6v236.8zM19.2 950.4h185.6v-236.8h-185.6v236.8zM217.6 950.4h185.6v-236.8h-185.6v236.8zM416 694.4h185.6v-236.8h-185.6v236.8zM614.4 694.4h185.6v-236.8h-185.6v236.8zM19.2 694.4h185.6v-236.8h-185.6v236.8zM217.6 694.4h185.6v-236.8h-185.6v236.8zM416 438.4h185.6v-236.8h-185.6v236.8zM614.4 438.4h185.6v-236.8h-185.6v236.8zM816 182.4h185.6v-236.8h-185.6v236.8zM816 950.4h185.6v-236.8h-185.6v236.8zM816 694.4h185.6v-236.8h-185.6v236.8zM816 438.4h185.6v-236.8h-185.6v236.8zM19.2 438.4h185.6v-236.8h-185.6v236.8zM217.6 438.4h185.6v-236.8h-185.6v236.8z" />
<glyph unicode="&#xe922;" glyph-name="poly-screen-103" d="M518.4 182.4h233.6v-236.8h-233.6v236.8zM768 182.4h233.6v-236.8h-233.6v236.8zM19.2 182.4h233.6v-236.8h-233.6v236.8zM268.8 182.4h233.6v-236.8h-233.6v236.8zM518.4 950.4h233.6v-236.8h-233.6v236.8zM768 950.4h233.6v-236.8h-233.6v236.8zM19.2 950.4h233.6v-236.8h-233.6v236.8zM268.8 950.4h233.6v-236.8h-233.6v236.8zM768 694.4h233.6v-236.8h-233.6v236.8zM19.2 694.4h233.6v-236.8h-233.6v236.8zM268.8 694.4h483.2v-492.8h-483.2v492.8zM768 438.4h233.6v-236.8h-233.6v236.8zM19.2 438.4h233.6v-236.8h-233.6v236.8z" />
<glyph unicode="&#xe923;" glyph-name="poly-screen-104" d="M518.4 182.4h233.6v-236.8h-233.6v236.8zM768 182.4h233.6v-236.8h-233.6v236.8zM19.2 182.4h233.6v-236.8h-233.6v236.8zM268.8 182.4h233.6v-236.8h-233.6v236.8zM518.4 950.4h233.6v-236.8h-233.6v236.8zM768 950.4h233.6v-236.8h-233.6v236.8zM19.2 950.4h233.6v-236.8h-233.6v236.8zM268.8 950.4h233.6v-236.8h-233.6v236.8zM22.4 694.4h483.2v-492.8h-483.2v492.8zM521.6 694.4h483.2v-492.8h-483.2v492.8z" />
<glyph unicode="&#xe924;" glyph-name="poly-screen-105" d="M518.4 182.4h233.6v-236.8h-233.6v236.8zM768 182.4h233.6v-236.8h-233.6v236.8zM19.2 182.4h233.6v-236.8h-233.6v236.8zM268.8 182.4h233.6v-236.8h-233.6v236.8zM518.4 438.4h233.6v-236.8h-233.6v236.8zM768 438.4h233.6v-236.8h-233.6v236.8zM19.2 438.4h233.6v-236.8h-233.6v236.8zM268.8 438.4h233.6v-236.8h-233.6v236.8zM22.4 950.4h483.2v-492.8h-483.2v492.8zM521.6 950.4h483.2v-492.8h-483.2v492.8z" />
<glyph unicode="&#xe925;" glyph-name="poly-screen-111" d="M12.8 947.2v-998.4h342.4v313.6h310.4v-313.6h345.6v998.4zM364.8 252.8h291.2v-304h-291.2v304z" />
<glyph unicode="&#xe926;" glyph-name="poly-screen-112" d="M252.8 166.4h220.8v-214.4h-220.8v214.4zM553.6 166.4h220.8v-214.4h-220.8v214.4zM12.8 947.2v-998.4h224v230.4h252.8v-230.4h48v230.4h252.8v-230.4h220.8v998.4z" />
<glyph unicode="&#xe927;" glyph-name="poly-screen-113" d="M124.8 166.4h220.8v-214.4h-220.8v214.4zM403.2 166.4h220.8v-214.4h-220.8v214.4zM681.6 166.4h220.8v-214.4h-220.8v214.4zM12.8 947.2v-998.4h96v230.4h252.8v-230.4h25.6v230.4h252.8v-230.4h25.6v230.4h252.8v-230.4h92.8v998.4z" />
<glyph unicode="&#xe928;" glyph-name="poly-screen-114" d="M12.8 947.2v-998.4h214.4v313.6h566.4v-313.6h217.6v998.4zM236.8 252.8h547.2v-304h-547.2v304z" />
<glyph unicode="&#xe929;" glyph-name="poly-screen-410" d="M633.6 828.8h-371.2v-368h368v368h3.2zM1024 828.8h-368v-368h368v368zM633.6 435.2h-371.2v-368h368v368h3.2zM1024 435.2h-368v-368h368v368z" />
<glyph unicode="&#xeac4;" glyph-name="poly-call" d="M899.2 761.6c-16 0-32-12.8-32-32 0-16 12.8-32 32-32 35.2 0 64-28.8 64-64v-403.2c0-35.2-28.8-64-64-64h-774.4c-35.2 0-64 28.8-64 64v406.4c0 35.2 28.8 64 64 64 16 0 32 12.8 32 32 0 16-12.8 32-32 32-67.2-3.2-124.8-60.8-124.8-128v-403.2c0-70.4 57.6-124.8 124.8-124.8h774.4c70.4 0 124.8 57.6 124.8 124.8v403.2c0 67.2-57.6 124.8-124.8 124.8v0zM704 464c-64 51.2-83.2 25.6-112-3.2-19.2-19.2-73.6 22.4-118.4 67.2s-86.4 96-67.2 118.4c28.8 28.8 54.4 48 3.2 112s-86.4 16-115.2-12.8c-32-32-3.2-156.8 118.4-275.2 121.6-121.6 243.2-153.6 275.2-118.4 32 25.6 80 60.8 16 112v0zM508.8 627.2v0c16 0 32-6.4 44.8-19.2s19.2-28.8 19.2-44.8v0 0c0-9.6 6.4-16 16-16s16 6.4 16 16c0 0 0 3.2 0 3.2 0 51.2-44.8 92.8-96 92.8-9.6 0-16-6.4-16-16s6.4-16 16-16v0zM508.8 691.2v0c19.2 0 35.2-3.2 51.2-9.6s28.8-16 41.6-28.8c12.8-12.8 22.4-25.6 28.8-41.6s9.6-32 9.6-51.2v0 0c0-9.6 6.4-16 16-16s16 6.4 16 16c0 0 0 3.2 0 3.2 0 89.6-73.6 160-163.2 160-9.6 0-16-6.4-16-16 0-6.4 6.4-16 16-16v0zM508.8 758.4c0 0 0 0 0 0 28.8 0 51.2-6.4 76.8-16 22.4-9.6 44.8-22.4 60.8-41.6 19.2-19.2 32-38.4 41.6-60.8s16-48 16-73.6c0 0 0 0 0-3.2 0-9.6 6.4-16 16-16s16 6.4 16 16v0 0c0 124.8-99.2 224-224 227.2h-3.2c-9.6 0-16-6.4-16-16s6.4-16 16-16v0z" />
<glyph unicode="&#xeac5;" glyph-name="poly-full-screen" d="M982.4 617.6c-22.4 0-41.6 19.2-41.6 41.6v214.4h-214.4c-22.4 0-41.6 19.2-41.6 41.6s16 44.8 41.6 44.8h256c22.4 0 41.6-19.2 41.6-41.6v-256c0-25.6-19.2-44.8-41.6-44.8zM640 534.4c-9.6 0-22.4 3.2-28.8 12.8-16 16-16 44.8 0 60.8l339.2 339.2c16 16 44.8 16 60.8 0s16-44.8 0-60.8l-342.4-339.2c-6.4-9.6-19.2-12.8-28.8-12.8zM982.4-64h-256c-22.4 0-41.6 19.2-41.6 41.6s19.2 41.6 41.6 41.6h214.4v214.4c0 22.4 19.2 41.6 41.6 41.6s41.6-19.2 41.6-41.6v-256c0-22.4-19.2-41.6-41.6-41.6zM982.4-64c-9.6 0-22.4 3.2-28.8 12.8l-342.4 342.4c-16 16-16 44.8 0 60.8s44.8 16 60.8 0l342.4-342.4c16-16 16-44.8 0-60.8-9.6-9.6-22.4-12.8-32-12.8zM297.6-64h-256c-22.4 0-41.6 19.2-41.6 41.6v256c0 22.4 19.2 41.6 41.6 41.6s41.6-19.2 41.6-41.6v-214.4h214.4c22.4 0 41.6-19.2 41.6-41.6s-16-41.6-41.6-41.6zM41.6-64c-9.6 0-22.4 3.2-28.8 12.8-16 16-16 44.8 0 60.8l342.4 342.4c16 16 44.8 16 60.8 0s16-44.8 0-60.8l-342.4-342.4c-9.6-9.6-19.2-12.8-32-12.8zM41.6 617.6c-22.4 0-41.6 19.2-41.6 44.8v256c0 22.4 19.2 41.6 41.6 41.6h256c22.4 0 41.6-19.2 41.6-41.6s-19.2-41.6-41.6-41.6h-211.2v-214.4c0-25.6-19.2-44.8-44.8-44.8zM384 534.4c-9.6 0-22.4 3.2-28.8 12.8l-342.4 339.2c-16 16-16 44.8 0 60.8s44.8 16 60.8 0l342.4-342.4c16-16 16-44.8 0-60.8-9.6-6.4-22.4-9.6-32-9.6z" />
<glyph unicode="&#xeac6;" glyph-name="poly-immediately-meeting" d="M512 960c-281.6 0-512-230.4-512-512s230.4-512 512-512c281.6 0 512 230.4 512 512s-230.4 512-512 512zM512 25.6c-233.6 0-422.4 188.8-422.4 422.4s188.8 422.4 422.4 422.4c233.6 0 422.4-188.8 422.4-422.4s-188.8-422.4-422.4-422.4zM681.6 342.4c16-16 16-44.8 0-64-9.6-9.6-19.2-12.8-32-12.8s-22.4 3.2-32 12.8l-137.6 137.6c-9.6 9.6-12.8 19.2-12.8 32v265.6c0 25.6 19.2 44.8 44.8 44.8s44.8-19.2 44.8-44.8v-246.4l124.8-124.8z" />
<glyph unicode="&#xeac7;" glyph-name="poly-login-lock" d="M745.6 672v105.6c0 99.2-80 182.4-182.4 182.4h-105.6c-99.2 0-182.4-80-182.4-182.4v-105.6c-112-57.6-188.8-172.8-188.8-304v-92.8c3.2-185.6 156.8-339.2 342.4-339.2h163.2c188.8 0 342.4 153.6 342.4 342.4v92.8c0 131.2-76.8 246.4-188.8 300.8zM371.2 777.6c0 48 38.4 89.6 89.6 89.6h105.6c48 0 89.6-38.4 89.6-89.6v-73.6c-19.2 3.2-38.4 6.4-60.8 6.4h-163.2c-19.2 0-41.6-3.2-60.8-6.4v73.6zM841.6 278.4c0-137.6-112-246.4-246.4-246.4h-163.2c-137.6 0-246.4 112-246.4 246.4v92.8c0 137.6 112 246.4 246.4 246.4h163.2c137.6 0 246.4-112 246.4-246.4v-92.8zM512 406.4c-35.2 0-64-28.8-64-64 0-12.8 3.2-25.6 12.8-38.4v-35.2c0-28.8 22.4-51.2 51.2-51.2s51.2 22.4 51.2 51.2v35.2c9.6 9.6 12.8 25.6 12.8 38.4 0 35.2-28.8 64-64 64z" />
<glyph unicode="&#xeac8;" glyph-name="poly-login-user" d="M512 323.2c166.4 0 300.8 134.4 300.8 300.8s-134.4 304-300.8 304c-166.4 0-300.8-134.4-300.8-300.8s134.4-304 300.8-304zM512 838.4c115.2 0 211.2-96 211.2-211.2 0-118.4-96-211.2-211.2-211.2s-211.2 96-211.2 211.2c0 115.2 96 211.2 211.2 211.2zM649.6 294.4c-16 3.2-32 0-41.6-9.6l-96-83.2-96 86.4c-12.8 9.6-28.8 12.8-41.6 9.6-64-22.4-374.4-128-374.4-284.8 0-22.4 19.2-44.8 44.8-44.8h934.4c25.6 0 44.8 19.2 44.8 44.8 0 156.8-310.4 262.4-374.4 281.6zM112 57.6c48 51.2 166.4 108.8 265.6 144l105.6-89.6c16-12.8 41.6-12.8 57.6 0l105.6 89.6c99.2-35.2 214.4-92.8 265.6-144h-800z" />
<glyph unicode="&#xeac9;" glyph-name="poly-off-line" d="M899.2 761.6c-16 0-32-12.8-32-32 0-16 12.8-32 32-32 35.2 0 64-28.8 64-64v-403.2c0-35.2-28.8-64-64-64h-774.4c-35.2 0-64 28.8-64 64v406.4c0 35.2 28.8 64 64 64 16 0 32 12.8 32 32 0 16-12.8 32-32 32-67.2-3.2-124.8-57.6-124.8-128v-403.2c0-70.4 57.6-124.8 124.8-124.8h774.4c70.4 0 124.8 57.6 124.8 124.8v403.2c0 70.4-57.6 124.8-124.8 124.8v0zM553.6 553.6l182.4 182.4c6.4 6.4 9.6 19.2 9.6 28.8-3.2 9.6-9.6 19.2-22.4 22.4-3.2 0-6.4 0-6.4 0-9.6 0-16-3.2-22.4-9.6l-182.4-179.2-182.4 179.2c-6.4 6.4-12.8 9.6-22.4 9.6-3.2 0-6.4 0-6.4 0-9.6-3.2-19.2-9.6-22.4-22.4 0-9.6 3.2-22.4 9.6-28.8l182.4-182.4-182.4-179.2c-6.4-6.4-9.6-19.2-9.6-28.8 3.2-9.6 9.6-19.2 22.4-22.4 3.2 0 6.4 0 6.4 0 9.6 0 16 3.2 22.4 9.6l182.4 179.2 182.4-182.4c6.4-6.4 12.8-9.6 22.4-9.6s16 3.2 22.4 9.6c6.4 6.4 9.6 12.8 9.6 22.4s-3.2 16-9.6 22.4l-185.6 179.2z" />
<glyph unicode="&#xeaca;" glyph-name="poly-on-line" d="M899.2 774.4c-16 0-32-12.8-32-32 0-16 12.8-32 32-32 35.2 0 64-28.8 64-64v-403.2c0-35.2-28.8-64-64-64h-774.4c-35.2 0-64 28.8-64 64v406.4c0 35.2 28.8 64 64 64 16 0 32 12.8 32 32 0 16-12.8 32-32 32-70.4-3.2-124.8-57.6-124.8-128v-403.2c0-70.4 57.6-124.8 124.8-124.8h774.4c70.4 0 124.8 57.6 124.8 124.8v403.2c0 70.4-57.6 124.8-124.8 124.8v0zM454.4 412.8c-6.4 0-16 3.2-22.4 9.6l-182.4 176c-6.4 6.4-9.6 12.8-9.6 22.4s3.2 16 9.6 22.4c12.8 12.8 32 12.8 44.8 0l160-156.8 313.6 304c12.8 12.8 32 12.8 44.8 0s12.8-32 0-41.6l-336-326.4c-6.4-6.4-12.8-9.6-22.4-9.6z" />
<glyph unicode="&#xeacb;" glyph-name="poly-reservation-meeting" d="M784-64h-544c-108.8 0-198.4 89.6-198.4 198.4v544c0 108.8 89.6 198.4 198.4 198.4 22.4 0 38.4-19.2 38.4-38.4s-16-41.6-38.4-41.6c-67.2 0-121.6-54.4-121.6-121.6v-540.8c0-67.2 54.4-121.6 121.6-121.6h540.8c67.2 0 121.6 54.4 121.6 121.6v544c0 67.2-54.4 121.6-121.6 121.6-22.4 0-38.4 19.2-38.4 38.4s19.2 38.4 38.4 38.4c108.8 0 198.4-89.6 198.4-198.4v-540.8c3.2-112-86.4-201.6-195.2-201.6zM611.2 796.8h-201.6c-22.4 0-38.4 19.2-38.4 38.4s19.2 38.4 38.4 38.4h201.6c22.4 0 38.4-19.2 38.4-38.4s-16-38.4-38.4-38.4zM924.8 572.8h-835.2c-22.4 0-38.4 19.2-38.4 38.4s19.2 38.4 38.4 38.4h835.2c22.4 0 38.4-19.2 38.4-38.4s-16-38.4-38.4-38.4zM758.4 329.6h-492.8c-22.4 0-38.4 19.2-38.4 38.4s19.2 38.4 38.4 38.4h492.8c22.4 0 38.4-19.2 38.4-38.4s-16-38.4-38.4-38.4zM620.8 179.2h-211.2c-22.4 0-38.4 19.2-38.4 38.4s19.2 38.4 38.4 38.4h211.2c22.4 0 38.4-19.2 38.4-38.4s-16-38.4-38.4-38.4zM323.2 694.4c-19.2 0-38.4 19.2-38.4 41.6v185.6c0 19.2 19.2 38.4 38.4 38.4s38.4-19.2 38.4-38.4v-185.6c3.2-22.4-16-41.6-38.4-41.6zM700.8 694.4c-22.4 0-38.4 19.2-38.4 38.4v188.8c0 22.4 19.2 38.4 38.4 38.4s38.4-19.2 38.4-38.4v-185.6c0-22.4-19.2-41.6-38.4-41.6z" />
<glyph unicode="&#xeacc;" glyph-name="poly-screen-shrink" d="M896 534.4h-256c-22.4 0-41.6 19.2-41.6 41.6v256c0 22.4 19.2 41.6 41.6 41.6s41.6-19.2 41.6-41.6v-214.4h214.4c22.4 0 41.6-19.2 41.6-41.6s-19.2-41.6-41.6-41.6zM640 534.4c-9.6 0-22.4 3.2-28.8 12.8-16 16-16 44.8 0 60.8l339.2 339.2c16 16 44.8 16 60.8 0s16-44.8 0-60.8l-342.4-339.2c-6.4-9.6-19.2-12.8-28.8-12.8zM640 22.4c-22.4 0-41.6 19.2-41.6 41.6v256c0 22.4 19.2 41.6 41.6 41.6h256c22.4 0 41.6-19.2 41.6-41.6s-19.2-41.6-41.6-41.6h-214.4v-214.4c0-22.4-19.2-41.6-41.6-41.6zM982.4-64c-9.6 0-22.4 3.2-28.8 12.8l-342.4 342.4c-16 16-16 44.8 0 60.8s44.8 16 60.8 0l342.4-342.4c16-16 16-44.8 0-60.8-9.6-9.6-22.4-12.8-32-12.8zM384 22.4c-22.4 0-41.6 19.2-41.6 41.6v214.4h-214.4c-22.4 0-41.6 19.2-41.6 41.6s19.2 41.6 41.6 41.6h256c22.4 0 41.6-19.2 41.6-41.6v-256c0-22.4-19.2-41.6-41.6-41.6zM41.6-64c-9.6 0-22.4 3.2-28.8 12.8-16 16-16 44.8 0 60.8l342.4 342.4c16 16 44.8 16 60.8 0s16-44.8 0-60.8l-342.4-342.4c-9.6-9.6-19.2-12.8-32-12.8zM384 534.4h-256c-22.4 0-41.6 19.2-41.6 41.6s19.2 41.6 41.6 41.6h214.4v214.4c0 22.4 19.2 41.6 41.6 41.6s41.6-19.2 41.6-41.6v-256c0-22.4-19.2-41.6-41.6-41.6zM384 534.4c-9.6 0-22.4 3.2-28.8 12.8l-342.4 339.2c-16 16-16 44.8 0 60.8s44.8 16 60.8 0l342.4-342.4c16-16 16-44.8 0-60.8-9.6-6.4-22.4-9.6-32-9.6z" />
<glyph unicode="&#xeacd;" glyph-name="poly-sum-meeting" d="M800 64h-576c-19.2 0-32-12.8-32-32s12.8-32 32-32h576c19.2 0 32 16 32 32 0 19.2-12.8 32-32 32v0zM896 896h-768c-70.4 0-128-57.6-128-128v-512c0-70.4 57.6-128 128-128h768c70.4 0 128 57.6 128 128v512c0 70.4-57.6 128-128 128v0zM960 256c0-35.2-28.8-64-64-64h-768c-35.2 0-64 28.8-64 64v512c0 35.2 28.8 64 64 64h768c35.2 0 64-28.8 64-64v-512zM889.6 691.2c-6.4 6.4-16 12.8-25.6 12.8h-3.2c-3.2 0-3.2 0-6.4 0h-182.4c-19.2 0-32-12.8-32-32s12.8-32 32-32h108.8l-240-243.2-169.6 169.6c0 0 0 0 0 0s0 0 0 0v0c-9.6 9.6-22.4 12.8-32 6.4-3.2-3.2-9.6-3.2-12.8-6.4l-185.6-188.8c-12.8-12.8-12.8-35.2 0-48s35.2-12.8 48 0l166.4 169.6 169.6-169.6c6.4-6.4 12.8-9.6 22.4-9.6s16 3.2 22.4 9.6c0 0 0 0 0 0s0 0 3.2 0l262.4 265.6v-115.2c0-16 12.8-32 32-32s32 12.8 32 32v192c-3.2 6.4-6.4 12.8-9.6 19.2 0 0 0 0 0 0v0z" />
<glyph unicode="&#xeace;" glyph-name="poly-control-add" d="M416 924.8c-172.8 0-316.8-140.8-316.8-316.8 0-108.8 57.6-208 147.2-265.6-121.6-54.4-211.2-166.4-246.4-300.8-3.2-12.8 0-38.4 9.6-48 6.4-9.6 16-25.6 25.6-25.6h6.4c19.2 0 38.4 22.4 41.6 41.6 35.2 153.6 176 278.4 329.6 278.4h3.2c83.2 0 163.2 35.2 224 96s92.8 140.8 92.8 224c-3.2 172.8-144 316.8-316.8 316.8zM412.8 377.6c-124.8 0-230.4 102.4-230.4 230.4s105.6 230.4 230.4 230.4c124.8 0 230.4-102.4 230.4-230.4 0-124.8-102.4-230.4-230.4-230.4zM595.2 64c-83.2 105.6-64 256 38.4 339.2s256 64 339.2-38.4c67.2-83.2 70.4-204.8 6.4-291.2-9.6-12.8-25.6-16-38.4-9.6 6.4-12.8 3.2-28.8-9.6-38.4-102.4-83.2-252.8-67.2-336 38.4zM924.8 323.2c-60.8 80-176 92.8-252.8 32s-89.6-176-28.8-252.8 176-89.6 252.8-28.8c9.6 6.4 22.4 9.6 32 3.2-6.4 9.6-3.2 22.4 3.2 32 44.8 64 44.8 153.6-6.4 214.4zM787.2 86.4c-16 0-28.8 12.8-28.8 28.8v198.4c0 16 12.8 28.8 28.8 28.8s28.8-12.8 28.8-28.8v-198.4c0-16-12.8-28.8-28.8-28.8zM886.4 185.6h-198.4c-16 0-28.8 12.8-28.8 28.8s12.8 28.8 28.8 28.8h198.4c16 0 28.8-12.8 28.8-28.8s-12.8-28.8-28.8-28.8z" />
<glyph unicode="&#xeacf;" glyph-name="poly-control-call" d="M572.8 646.4v0c35.2 0 64-12.8 86.4-35.2s35.2-54.4 35.2-89.6v0 0c0-16 12.8-32 32-32 16 0 32 12.8 32 32 0 3.2 0 3.2 0 6.4-3.2 99.2-86.4 182.4-185.6 182.4-16 0-32-12.8-32-32s12.8-32 32-32v0zM572.8 771.2v0c35.2 0 67.2-6.4 96-19.2s57.6-32 80-54.4c22.4-22.4 41.6-48 54.4-80s19.2-64 19.2-96v0 0c0-16 12.8-32 32-32s32 12.8 32 32c0 3.2 0 3.2 0 6.4-6.4 169.6-144 304-313.6 304-16 0-32-12.8-32-32 0-16 12.8-28.8 32-28.8v0zM572.8 896c0 0 3.2 0 3.2 0 48 0 96-9.6 140.8-28.8s83.2-44.8 118.4-80c35.2-35.2 60.8-73.6 80-118.4s28.8-92.8 28.8-140.8c0 0 0-3.2 0-3.2 0-16 12.8-32 32-32 16 0 32 12.8 32 32v0 0c0 240-192 432-428.8 435.2h-6.4c-16 0-32-12.8-32-32s12.8-32 32-32v0zM899.2-32c0 0 0 3.2 0 0l105.6 124.8c16 16 22.4 41.6 19.2 64s-12.8 41.6-28.8 57.6c0 0-3.2 3.2-3.2 3.2l-153.6 115.2c-35.2 28.8-86.4 28.8-118.4-3.2-3.2-3.2-3.2-3.2-6.4-6.4l-38.4-60.8c-22.4 3.2-83.2 35.2-195.2 144s-147.2 169.6-150.4 188.8l60.8 41.6c3.2 3.2 3.2 3.2 6.4 6.4 32 32 32 86.4 0 118.4l-121.6 147.2c0 0-3.2 3.2-3.2 3.2-35.2 32-89.6 35.2-121.6 3.2l-121.6-108.8c0 0 0 0-3.2-3.2-19.2-19.2-25.6-51.2-25.6-86.4 0-60.8 28.8-131.2 41.6-169.6 28.8-70.4 99.2-211.2 243.2-345.6 105.6-102.4 233.6-182.4 358.4-227.2 57.6-22.4 198.4-64 256-6.4zM348.8 265.6c-211.2 204.8-275.2 435.2-256 476.8l115.2 105.6c0 0 0 0 0 0l118.4-144-57.6-41.6c0 0-3.2-3.2-3.2-3.2-16-12.8-25.6-32-25.6-54.4s-3.2-89.6 179.2-262.4c44.8-44.8 182.4-176 272-169.6 22.4 3.2 41.6 12.8 54.4 28.8 0 0 3.2 3.2 3.2 3.2l38.4 60.8 150.4-112c0 0 0 0 0 0l-102.4-121.6c-41.6-19.2-275.2 32-486.4 233.6z" />
<glyph unicode="&#xead0;" glyph-name="poly-control-close" d="M512 384c-25.6 0-48 22.4-48 48v483.2c0 22.4 22.4 44.8 48 44.8 0 0 0 0 0 0 25.6 0 48-22.4 48-48v-483.2c0-22.4-22.4-44.8-48-44.8 0 0 0 0 0 0zM512-64c-246.4 0-448 201.6-448 448 0 192 124.8 364.8 310.4 422.4 25.6 6.4 51.2-6.4 57.6-28.8 6.4-25.6-6.4-51.2-28.8-57.6-147.2-48-243.2-182.4-243.2-336 0-195.2 160-352 352-352s352 160 352 352c0 153.6-99.2 288-246.4 336-25.6 6.4-38.4 35.2-28.8 57.6 6.4 25.6 35.2 38.4 57.6 28.8 188.8-57.6 313.6-230.4 313.6-422.4 0-246.4-201.6-448-448-448z" />
<glyph unicode="&#xead1;" glyph-name="poly-control-debater" d="M515.2 822.4c-137.6 0-246.4-112-246.4-246.4 0-86.4 44.8-163.2 115.2-208-96-44.8-166.4-128-195.2-233.6-3.2-9.6 0-19.2 6.4-28.8 6.4-6.4 12.8-9.6 22.4-9.6h3.2c16 0 28.8 3.2 32 19.2 28.8 121.6 137.6 204.8 259.2 204.8h3.2c64 0 128 32 172.8 76.8 44.8 48 70.4 108.8 70.4 176 3.2 137.6-108.8 249.6-243.2 249.6zM512 396.8c-99.2 0-179.2 80-179.2 179.2s80 179.2 179.2 179.2c99.2 0 179.2-80 179.2-179.2s-80-179.2-179.2-179.2zM812.8 80h-9.6c-16 0-28.8 9.6-32 25.6v0c-12.8 64-51.2 121.6-105.6 160l-16 9.6c-16 9.6-19.2 25.6-9.6 44.8 9.6 16 25.6 19.2 44.8 12.8v0l19.2-12.8c64-44.8 108.8-115.2 131.2-195.2v0c3.2-19.2-6.4-32-16-41.6l-6.4-3.2zM1004.8 652.8c-9.6 0-19.2 9.6-19.2 19.2v246.4h-249.6c-9.6 0-19.2 9.6-19.2 19.2s6.4 22.4 19.2 22.4h268.8c9.6 0 19.2-9.6 19.2-19.2v-268.8c0-12.8-9.6-19.2-19.2-19.2zM1004.8-64h-268.8c-9.6 0-19.2 9.6-19.2 19.2s9.6 19.2 19.2 19.2h249.6v249.6c0 9.6 9.6 19.2 19.2 19.2s19.2-9.6 19.2-19.2v-268.8c0-9.6-9.6-19.2-19.2-19.2zM288-64h-268.8c-9.6 0-19.2 9.6-19.2 19.2v268.8c0 9.6 9.6 19.2 19.2 19.2s19.2-9.6 19.2-19.2v-249.6h249.6c9.6 0 19.2-9.6 19.2-19.2s-6.4-19.2-19.2-19.2zM19.2 652.8c-9.6 0-19.2 6.4-19.2 19.2v268.8c0 9.6 9.6 19.2 19.2 19.2h268.8c9.6 0 19.2-9.6 19.2-19.2s-6.4-22.4-19.2-22.4h-246.4v-246.4c0-12.8-9.6-19.2-22.4-19.2z" />
<glyph unicode="&#xead2;" glyph-name="poly-control-delayed" d="M512-64c-243.2 0-438.4 198.4-438.4 438.4s195.2 438.4 438.4 438.4c32 0 67.2-3.2 99.2-12.8 44.8-9.6 89.6-28.8 128-51.2v0c131.2-80 211.2-220.8 211.2-374.4 0-240-195.2-438.4-438.4-438.4zM512 736c-198.4 0-361.6-163.2-361.6-361.6s163.2-361.6 361.6-361.6 361.6 163.2 361.6 361.6c0 128-64 243.2-172.8 307.2-32 19.2-67.2 35.2-105.6 44.8-28.8 6.4-54.4 9.6-83.2 9.6zM512 268.8c-25.6 0-54.4 9.6-73.6 32-19.2 19.2-32 44.8-32 73.6s9.6 54.4 32 73.6c19.2 19.2 44.8 32 73.6 32s54.4-9.6 73.6-32c19.2-19.2 32-44.8 32-73.6s-9.6-54.4-32-73.6c-19.2-22.4-48-32-73.6-32zM512 432c-16 0-28.8-6.4-41.6-16v0c-9.6-9.6-16-25.6-16-41.6s6.4-28.8 16-41.6c22.4-22.4 60.8-22.4 83.2 0 9.6 9.6 16 25.6 16 41.6s-6.4 28.8-16 41.6c-12.8 9.6-25.6 16-41.6 16zM432 371.2c-3.2 0-6.4 0-6.4 0-12.8 3.2-19.2 16-16 28.8l80 230.4c3.2 9.6 12.8 16 22.4 16s19.2-6.4 22.4-16l80-230.4c3.2-12.8-3.2-25.6-16-28.8s-25.6 3.2-28.8 16l-57.6 166.4-57.6-166.4c-3.2-9.6-12.8-16-22.4-16zM534.4 272c-9.6 0-19.2 6.4-22.4 16-3.2 12.8 3.2 25.6 16 28.8l166.4 57.6-166.4 57.6c-12.8 3.2-19.2 16-16 28.8s16 19.2 28.8 16l230.4-80c9.6-3.2 16-12.8 16-22.4s-6.4-19.2-16-22.4l-230.4-80c0 0-3.2 0-6.4 0zM592 758.4c-16 0-28.8 12.8-28.8 28.8v70.4c0 25.6-19.2 44.8-44.8 44.8s-44.8-19.2-44.8-44.8v-60.8c0-16-12.8-28.8-28.8-28.8s-28.8 12.8-28.8 28.8v60.8c0 57.6 44.8 102.4 102.4 102.4s102.4-44.8 102.4-102.4v-70.4c0-16-12.8-28.8-28.8-28.8zM736 700.8c-6.4 0-9.6 0-16 3.2-12.8 9.6-19.2 25.6-9.6 41.6l44.8 70.4c3.2 6.4 9.6 12.8 19.2 12.8 6.4 3.2 16 0 22.4-3.2l48-32c12.8-9.6 16-25.6 9.6-41.6-9.6-12.8-25.6-16-41.6-9.6l-22.4 16-28.8-44.8c-6.4-6.4-16-12.8-25.6-12.8zM780.8 774.4c-6.4 0-9.6 0-16 6.4l-48 32c-12.8 9.6-16 25.6-9.6 41.6 9.6 12.8 25.6 16 41.6 9.6l48-32c12.8-9.6 16-25.6 9.6-41.6-9.6-12.8-16-16-25.6-16z" />
<glyph unicode="&#xead3;" glyph-name="poly-control-live" d="M976 745.6c-28.8 28.8-67.2 44.8-108.8 44.8h-201.6l54.4 96c9.6 16 3.2 38.4-12.8 51.2-16 9.6-38.4 3.2-51.2-16l-76.8-131.2h-160l-76.8 131.2c-12.8 19.2-32 25.6-51.2 16-9.6-12.8-12.8-32-3.2-51.2l54.4-96h-188.8c-41.6 0-80-16-108.8-44.8s-44.8-67.2-44.8-108.8v-528c0-41.6 16-80 44.8-108.8s67.2-44.8 108.8-44.8h713.6c41.6 0 80 16 108.8 44.8s44.8 67.2 44.8 112v524.8c3.2 41.6-16 80-44.8 108.8v0zM950.4 108.8c0-48-38.4-83.2-83.2-83.2h-713.6c-48 0-83.2 38.4-83.2 83.2v528c0 48 38.4 83.2 83.2 83.2h713.6c48 0 83.2-38.4 83.2-83.2v-528zM742.4 416l-345.6 201.6c-12.8 6.4-25.6 6.4-38.4 0s-19.2-19.2-19.2-32v-400c0-12.8 6.4-25.6 19.2-32 6.4-3.2 12.8-6.4 19.2-6.4s12.8 0 19.2 6.4l345.6 201.6c12.8 6.4 19.2 19.2 19.2 32 0 9.6-6.4 22.4-19.2 28.8v0z" />
<glyph unicode="&#xead4;" glyph-name="poly-control-lock" d="M512-64c-35.2 0-70.4 6.4-105.6 16-22.4 6.4-35.2 32-25.6 54.4 6.4 22.4 32 35.2 54.4 25.6 25.6-9.6 51.2-12.8 76.8-12.8 137.6 0 249.6 112 249.6 249.6s-112 249.6-249.6 249.6-249.6-112-249.6-249.6c0-67.2 28.8-131.2 76.8-179.2 16-16 16-41.6 0-60.8-16-16-41.6-16-60.8 0-67.2 64-102.4 150.4-102.4 240 0 185.6 150.4 332.8 332.8 332.8 185.6 0 332.8-150.4 332.8-332.8s-144-332.8-329.6-332.8zM691.2 483.2c-22.4 0-41.6 19.2-41.6 41.6v240c0 60.8-57.6 112-131.2 112h-9.6c-73.6 0-131.2-51.2-131.2-112v-236.8c0-22.4-19.2-41.6-41.6-41.6s-41.6 19.2-41.6 41.6v236.8c0 108.8 96 195.2 214.4 195.2h9.6c118.4 0 214.4-89.6 214.4-195.2v-236.8c0-25.6-19.2-44.8-41.6-44.8zM512 236.8c-12.8 0-25.6 6.4-35.2 16s-16 22.4-16 35.2c0 12.8 6.4 25.6 16 35.2s22.4 16 35.2 16c12.8 0 25.6-6.4 35.2-16s16-22.4 16-35.2c0-12.8-6.4-25.6-16-35.2s-22.4-16-35.2-16zM512 185.6c-22.4 0-41.6 19.2-41.6 41.6v44.8c0 22.4 19.2 41.6 41.6 41.6s41.6-19.2 41.6-41.6v-44.8c0-22.4-19.2-41.6-41.6-41.6z" />
<glyph unicode="&#xead5;" glyph-name="poly-control-log" d="M908.8-64h-793.6c-22.4 0-38.4 19.2-38.4 38.4v947.2c0 19.2 16 38.4 38.4 38.4h105.6c22.4 0 38.4-19.2 38.4-38.4s-16-41.6-38.4-41.6h-64v-867.2h713.6v867.2h-528c-22.4 0-38.4 19.2-38.4 38.4s16 41.6 38.4 41.6h566.4c22.4 0 38.4-19.2 38.4-38.4v-944c0-22.4-16-41.6-38.4-41.6zM716.8 560h-412.8c-22.4 0-38.4 19.2-38.4 38.4s16 41.6 38.4 41.6h412.8c22.4 0 38.4-19.2 38.4-38.4s-16-41.6-38.4-41.6zM710.4 428.8h-396.8c-22.4 0-38.4 19.2-38.4 38.4s19.2 38.4 38.4 38.4h396.8c22.4 0 38.4-19.2 38.4-38.4s-16-38.4-38.4-38.4zM540.8 297.6h-220.8c-22.4 0-38.4 19.2-38.4 38.4s19.2 38.4 38.4 38.4h220.8c22.4 0 38.4-19.2 38.4-38.4s-16-38.4-38.4-38.4zM710.4 297.6h-70.4c-22.4 0-38.4 19.2-38.4 38.4s19.2 38.4 38.4 38.4h70.4c22.4 0 38.4-19.2 38.4-38.4s-16-38.4-38.4-38.4z" />
<glyph unicode="&#xead6;" glyph-name="poly-control-mute" d="M761.6-19.2c0-25.6-19.2-44.8-44.8-44.8h-409.6c-25.6 0-44.8 19.2-44.8 44.8s19.2 44.8 44.8 44.8h163.2v76.8c0 22.4 19.2 38.4 38.4 38.4 22.4 0 38.4-16 38.4-38.4v-76.8h163.2c28.8 0 51.2-19.2 51.2-44.8zM752 636.8v0c-22.4 0-38.4-16-38.4-38.4v-288c0-16-6.4-32-19.2-44.8-9.6-12.8-25.6-16-41.6-16v0h-278.4c-16 0-28.8 6.4-41.6 19.2s-19.2 28.8-19.2 44.8v288c0 22.4-19.2 38.4-38.4 38.4v0c-22.4 0-38.4-16-38.4-38.4v-288c0-38.4 12.8-70.4 41.6-99.2 25.6-25.6 60.8-41.6 99.2-41.6h278.4c0 0 0 0 0 0 38.4 0 73.6 16 99.2 41.6s41.6 60.8 41.6 99.2v288c-6.4 19.2-25.6 35.2-44.8 35.2zM390.4 332.8c-16 19.2-25.6 41.6-25.6 64v464c0 22.4 9.6 44.8 25.6 64 19.2 22.4 41.6 35.2 64 35.2 0 0 0 0 0 0h108.8c51.2 0 89.6-54.4 89.6-96v-464c0-44.8-41.6-96-89.6-96v0l-108.8-3.2c-19.2 0-44.8 12.8-64 32zM457.6 396.8c0-3.2 3.2-6.4 6.4-9.6h96c3.2 3.2 6.4 6.4 6.4 9.6v464c0 3.2-3.2 6.4-6.4 9.6h-96c-3.2-3.2-6.4-6.4-6.4-9.6v-464z" />
<glyph unicode="&#xead7;" glyph-name="poly-control-off" d="M508.8 547.2c-169.6-3.2-288-80-297.6-102.4l9.6-89.6c0 0 0 0 0 0l108.8 16-9.6 38.4c0 0 0 0 0 3.2 0 12.8 3.2 25.6 9.6 35.2 32 38.4 144 41.6 179.2 41.6 147.2 3.2 172.8-25.6 182.4-35.2s12.8-22.4 12.8-35.2c0 0 0-3.2 0-3.2l-6.4-41.6 108.8-9.6c0 0 0 0 0 0l3.2 89.6c-9.6 28.8-128 99.2-300.8 92.8zM512 963.2c-281.6 0-512-227.2-512-512s230.4-512 512-512 512 230.4 512 512-230.4 512-512 512zM864 457.6l-6.4-92.8c0-25.6-22.4-48-51.2-48 0 0-3.2 0-3.2 0l-112 9.6c-25.6 0-48 22.4-48 48 0 3.2 0 3.2 0 6.4l6.4 41.6c-9.6 6.4-48 19.2-140.8 16-89.6-3.2-128-16-137.6-22.4l9.6-41.6c0-3.2 0-3.2 0-6.4 0-25.6-19.2-48-48-51.2l-108.8-16c0 0-3.2 0-3.2 0-12.8 0-25.6 3.2-35.2 12.8s-19.2 22.4-19.2 35.2l-6.4 92.8c0 0 0 0 0 3.2 0 48 73.6 86.4 108.8 102.4 70.4 32 156.8 51.2 240 54.4 115.2 3.2 201.6-25.6 243.2-41.6 22.4-9.6 60.8-25.6 86.4-51.2 12.8-16 25.6-32 25.6-51.2 0 3.2 0 0 0 0z" />
<glyph unicode="&#xead8;" glyph-name="poly-control-record" d="M912 32h-800c-64 0-112 51.2-112 112v608c0 60.8 51.2 112 112 112h796.8c64 0 112-51.2 112-112v-604.8c3.2-64-48-115.2-108.8-115.2zM112 787.2c-19.2 0-38.4-16-38.4-38.4v-604.8c0-19.2 16-38.4 38.4-38.4h796.8c19.2 0 38.4 16 38.4 38.4v608c0 19.2-16 38.4-38.4 38.4h-796.8zM140.8 438.4c0-41.6 35.2-76.8 76.8-76.8s76.8 35.2 76.8 76.8c0 41.6-35.2 76.8-76.8 76.8s-76.8-32-76.8-76.8v0zM505.6 393.6c0 3.2 3.2 0 3.2 3.2-3.2 28.8 3.2 38.4-28.8 41.6v0c32 6.4 35.2 25.6 35.2 51.2 0 32-28.8 54.4-76.8 54.4h-86.4v-192h64v64h28.8c9.6 0 16 0 19.2-19.2 0-19.2 3.2-44.8 6.4-44.8h48c-6.4 0-12.8 16-12.8 41.6zM435.2 476.8h-25.6v32h25.6c19.2 0 28.8 3.2 32-12.8-3.2-19.2-12.8-19.2-32-19.2zM582.4 425.6h86.4v35.2h-86.4v44.8h92.8v35.2h-137.6v-201.6h140.8v32h-96v54.4zM787.2 512c25.6 0 38.4-12.8 38.4-38.4h44.8c-3.2 44.8-32 67.2-86.4 70.4-54.4-3.2-83.2-38.4-83.2-105.6s28.8-102.4 83.2-102.4c54.4 0 83.2 22.4 86.4 67.2h-44.8c0-25.6-16-38.4-38.4-38.4s-35.2 25.6-38.4 73.6c0 48 12.8 73.6 38.4 73.6v0z" />
<glyph unicode="&#xead9;" glyph-name="poly-control-screen" d="M700.8 16h-377.6c-19.2 0-35.2 16-35.2 35.2s16 35.2 35.2 35.2h377.6c19.2 0 35.2-16 35.2-35.2s-16-35.2-35.2-35.2zM889.6 880h-755.2c-73.6 0-134.4-60.8-134.4-134.4v-448c0-73.6 60.8-134.4 134.4-134.4h755.2c73.6 0 134.4 60.8 134.4 134.4v448c0 73.6-60.8 134.4-134.4 134.4zM956.8 297.6c0-38.4-28.8-67.2-67.2-67.2h-755.2c-38.4 0-67.2 28.8-67.2 67.2v448c0 38.4 28.8 67.2 67.2 67.2h755.2c38.4 0 67.2-28.8 67.2-67.2v-448zM803.2 771.2c0-3.2 3.2-9.6 6.4-9.6 6.4-3.2 9.6-3.2 16 0s6.4 6.4 6.4 9.6c0 3.2-3.2 9.6-6.4 9.6-6.4 3.2-9.6 3.2-16 0-3.2 0-6.4-3.2-6.4-9.6v0zM809.6 544h-246.4c-12.8 0-25.6 9.6-25.6 19.2v201.6c0 12.8 9.6 19.2 25.6 19.2h201.6c9.6 0 16-6.4 16-12.8s-6.4-12.8-16-12.8h-195.2v-188.8h233.6v160c0 6.4 6.4 12.8 16 12.8 6.4 0 12.8-6.4 12.8-12.8v-166.4c0-9.6-9.6-19.2-22.4-19.2v0zM803.2 275.2c0-3.2 3.2-9.6 6.4-9.6 6.4-3.2 9.6-3.2 16 0s6.4 6.4 6.4 9.6-3.2 9.6-6.4 9.6-9.6 3.2-16 0c-3.2 0-6.4-6.4-6.4-9.6v0zM764.8 262.4h-201.6c-12.8 0-25.6 9.6-25.6 19.2v201.6c0 12.8 9.6 19.2 25.6 19.2h246.4c12.8 0 25.6-9.6 25.6-19.2v-166.4c0-6.4-6.4-12.8-16-12.8s-16 6.4-16 12.8v160h-233.6v-188.8h195.2c9.6 0 16-6.4 16-12.8s-6.4-12.8-16-12.8v0zM195.2 771.2c0-6.4 6.4-12.8 16-12.8 6.4 0 12.8 6.4 12.8 12.8s-6.4 12.8-16 12.8c-6.4 0-12.8-6.4-12.8-12.8v0zM464 544h-243.2c-12.8 0-25.6 9.6-25.6 19.2v166.4c0 6.4 6.4 12.8 16 12.8 6.4 0 12.8-6.4 12.8-12.8v-160h233.6v188.8h-195.2c-9.6 0-16 6.4-16 12.8s6.4 12.8 16 12.8h201.6c12.8 0 25.6-9.6 25.6-19.2v-201.6c0-9.6-12.8-19.2-25.6-19.2v0zM195.2 275.2c0-6.4 6.4-12.8 16-12.8s16 6.4 16 12.8-9.6 12.8-16 12.8c-9.6 0-16-6.4-16-12.8v0zM464 262.4h-201.6c-9.6 0-16 6.4-16 12.8s6.4 12.8 16 12.8h195.2v188.8h-233.6v-160c0-6.4-6.4-12.8-16-12.8s-16 6.4-16 12.8v166.4c0 12.8 9.6 19.2 25.6 19.2h246.4c12.8 0 25.6-9.6 25.6-19.2v-201.6c0-9.6-12.8-19.2-25.6-19.2v0z" />
<glyph unicode="&#xeada;" glyph-name="poly-control-share" d="M908.8 118.4h-793.6c-64 0-115.2 51.2-115.2 115.2v611.2c0 64 51.2 115.2 115.2 115.2h793.6c64 0 115.2-51.2 115.2-115.2v-611.2c0-64-51.2-115.2-115.2-115.2zM131.2 899.2c-38.4 0-67.2-32-67.2-67.2v-588.8c0-38.4 32-67.2 67.2-67.2h764.8c38.4 0 67.2 32 67.2 67.2v588.8c0 38.4-32 67.2-67.2 67.2h-764.8zM793.6 707.2h-233.6c-19.2 0-38.4 16-38.4 38.4 0 19.2 16 38.4 38.4 38.4h233.6c19.2 0 38.4-16 38.4-38.4s-16-38.4-38.4-38.4v0zM723.2 534.4h-160c-19.2 0-38.4 16-38.4 38.4 0 19.2 16 38.4 38.4 38.4h160c19.2 0 38.4-16 38.4-38.4s-19.2-38.4-38.4-38.4v0zM710.4 99.2l-16-67.2h-566.4l-16 67.2h598.4zM764.8 176h-707.2c-19.2 0-35.2-16-32-35.2l35.2-156.8c3.2-16 16-25.6 32-25.6h640c16 0 28.8 9.6 32 25.6l32 156.8c3.2 16-12.8 35.2-32 35.2zM73.6 176h-6.4c-6.4 0-12.8 3.2-19.2 9.6s-9.6 19.2-6.4 28.8c25.6 99.2 92.8 182.4 185.6 224-67.2 41.6-108.8 118.4-108.8 198.4 0 128 105.6 233.6 233.6 233.6s233.6-105.6 233.6-236.8c0-60.8-25.6-121.6-67.2-166.4-44.8-44.8-102.4-70.4-166.4-70.4v0c-115.2 0-217.6-86.4-246.4-201.6-6.4-9.6-16-19.2-32-19.2zM352 806.4c-92.8 0-169.6-76.8-169.6-169.6s73.6-172.8 169.6-172.8 169.6 76.8 169.6 169.6-76.8 172.8-169.6 172.8zM627.2 176c-12.8 0-28.8 9.6-32 22.4v0c-12.8 60.8-48 115.2-99.2 150.4l-16 12.8c-16 6.4-19.2 25.6-9.6 41.6 6.4 16 25.6 19.2 44.8 9.6v0l16-9.6c60.8-44.8 105.6-108.8 124.8-185.6v0c3.2-19.2-3.2-32-9.6-35.2-3.2-3.2-9.6-6.4-19.2-6.4zM364.8 208c-3.2 0-6.4 0-9.6 3.2 0 0 0 0-3.2 0v0l-35.2 38.4c-6.4 6.4-6.4 12.8-3.2 19.2l35.2 99.2c3.2 6.4 9.6 9.6 16 9.6s12.8-3.2 16-9.6v0l35.2-99.2c3.2-6.4 0-16-3.2-19.2l-35.2-38.4c-6.4-3.2-9.6-3.2-12.8-3.2zM348.8 268.8l16-16 16 16-16 38.4-16-38.4zM784 288v41.6c0 6.4-3.2 9.6-9.6 9.6s-9.6-3.2-9.6-9.6v-41.6c0-3.2 0-41.6-41.6-41.6-38.4 0-41.6 35.2-41.6 41.6v41.6c0 6.4-3.2 9.6-9.6 9.6s-9.6-3.2-9.6-9.6v-41.6c0-19.2 9.6-54.4 51.2-60.8v-32h-41.6c-6.4 0-9.6-3.2-9.6-9.6s3.2-9.6 9.6-9.6h99.2c6.4 0 9.6 3.2 9.6 9.6s-3.2 9.6-9.6 9.6h-35.2v32c38.4 6.4 48 41.6 48 60.8v0zM694.4 288c0-16 12.8-28.8 28.8-28.8s28.8 12.8 28.8 28.8v41.6h-60.8l3.2-41.6zM726.4 419.2c-16 0-28.8-12.8-28.8-28.8v-51.2h60.8v51.2c-3.2 16-16 28.8-32 28.8z" />
<glyph unicode="&#xeadb;" glyph-name="poly-control-speaker" d="M848 96l-19.2-76.8h-633.6l-19.2 76.8h672zM908.8 179.2h-793.6c-22.4 0-38.4-19.2-35.2-41.6l38.4-176c3.2-12.8 19.2-25.6 35.2-25.6h716.8c16 0 32 12.8 35.2 28.8l38.4 176c3.2 19.2-12.8 38.4-35.2 38.4zM134.4 182.4h-6.4c-6.4 0-16 3.2-19.2 12.8-6.4 9.6-9.6 19.2-6.4 32 28.8 112 105.6 204.8 208 249.6-76.8 48-124.8 131.2-124.8 220.8 0 144 115.2 262.4 262.4 262.4s262.4-118.4 262.4-262.4c0-70.4-28.8-134.4-76.8-185.6-51.2-51.2-115.2-76.8-185.6-76.8h-3.2c-128 0-246.4-96-275.2-224-3.2-19.2-19.2-28.8-35.2-28.8zM444.8 886.4c-105.6 0-192-86.4-192-192s86.4-192 192-192 192 86.4 192 192-86.4 192-192 192zM755.2 182.4c-16 0-32 9.6-35.2 25.6v0c-16 70.4-54.4 128-112 169.6l-19.2 12.8c-16 9.6-19.2 28.8-12.8 48 9.6 16 28.8 22.4 48 12.8v0l19.2-12.8c67.2-48 118.4-121.6 140.8-208v0c3.2-19.2-3.2-35.2-12.8-41.6 0-3.2-6.4-6.4-16-6.4zM460.8 217.6c-6.4 0-9.6 3.2-9.6 3.2s0 0-3.2 0v0l-41.6 41.6c-6.4 6.4-6.4 12.8-3.2 19.2l38.4 112c3.2 6.4 9.6 12.8 19.2 12.8s16-3.2 19.2-12.8v0l38.4-112c3.2-6.4 0-16-3.2-19.2l-41.6-38.4c-6.4-3.2-9.6-6.4-12.8-6.4zM441.6 284.8l16-16 16 16-16 44.8-16-44.8zM931.2 307.2v44.8c0 6.4-6.4 12.8-12.8 12.8s-12.8-6.4-12.8-12.8v-44.8c0-3.2 0-44.8-44.8-44.8-41.6 0-44.8 41.6-44.8 44.8v44.8c0 6.4-6.4 12.8-12.8 12.8s-12.8-6.4-12.8-12.8v-44.8c0-22.4 12.8-60.8 57.6-67.2v-35.2h-44.8c-6.4 0-12.8-6.4-12.8-12.8s6.4-12.8 12.8-12.8h112c6.4 0 12.8 6.4 12.8 12.8s-6.4 12.8-12.8 12.8h-44.8v35.2c48 6.4 60.8 48 60.8 67.2v0zM828.8 307.2c0-19.2 16-35.2 35.2-35.2s35.2 16 35.2 35.2v44.8h-67.2l-3.2-44.8zM864 454.4c-19.2 0-35.2-16-35.2-32v-57.6h67.2v57.6c0 16-12.8 32-32 32z" />
<glyph unicode="&#xeadc;" glyph-name="poly-control-subtitle" d="M912 32h-800c-64 0-112 51.2-112 112v608c0 60.8 51.2 112 112 112h796.8c64 0 112-51.2 112-112v-604.8c3.2-64-48-115.2-108.8-115.2zM112 787.2c-19.2 0-38.4-16-38.4-38.4v-604.8c0-19.2 16-38.4 38.4-38.4h796.8c19.2 0 38.4 16 38.4 38.4v608c0 19.2-16 38.4-38.4 38.4h-796.8zM841.6 601.6h-547.2c-19.2 0-38.4 16-38.4 38.4 0 19.2 16 38.4 38.4 38.4h547.2c19.2 0 38.4-16 38.4-38.4s-19.2-38.4-38.4-38.4v0zM665.6 409.6h-86.4c-19.2 0-38.4 16-38.4 38.4 0 19.2 16 38.4 38.4 38.4h86.4c19.2 0 38.4-16 38.4-38.4 0-19.2-16-38.4-38.4-38.4v0zM473.6 409.6h-291.2c-19.2 0-38.4 16-38.4 38.4 0 19.2 16 38.4 38.4 38.4h291.2c19.2 0 38.4-16 38.4-38.4 0-19.2-16-38.4-38.4-38.4v0zM393.6 220.8h-86.4c-19.2 0-38.4 16-38.4 38.4s16 38.4 38.4 38.4h86.4c19.2 0 38.4-16 38.4-38.4s-19.2-38.4-38.4-38.4v0zM771.2 220.8h-265.6c-19.2 0-38.4 16-38.4 38.4s16 38.4 38.4 38.4h265.6c19.2 0 38.4-16 38.4-38.4s-19.2-38.4-38.4-38.4v0z" />
<glyph unicode="&#xeadd;" glyph-name="poly-control-unlock" d="M390.4-64c-35.2 0-70.4 6.4-105.6 16-22.4 6.4-35.2 32-25.6 54.4 6.4 22.4 32 35.2 54.4 25.6 25.6-9.6 51.2-12.8 76.8-12.8 137.6 0 249.6 112 249.6 249.6s-112 249.6-249.6 249.6-249.6-112-249.6-249.6c0-67.2 28.8-131.2 76.8-179.2 16-16 16-41.6 0-60.8-16-16-41.6-16-60.8 0-67.2 64-102.4 150.4-102.4 240 0 185.6 150.4 332.8 332.8 332.8 185.6 0 332.8-150.4 332.8-332.8s-147.2-332.8-329.6-332.8zM924.8 483.2c-22.4 0-41.6 19.2-41.6 41.6v240c0 60.8-57.6 112-131.2 112h-9.6c-73.6 0-131.2-51.2-131.2-112v-236.8c0-22.4-19.2-41.6-41.6-41.6s-41.6 19.2-41.6 41.6v236.8c0 108.8 96 195.2 214.4 195.2h9.6c118.4 0 214.4-89.6 214.4-195.2v-236.8c0-25.6-19.2-44.8-41.6-44.8zM390.4 236.8c-12.8 0-25.6 6.4-35.2 16s-16 22.4-16 35.2c0 12.8 6.4 25.6 16 35.2s22.4 16 35.2 16c12.8 0 25.6-6.4 35.2-16s16-22.4 16-35.2c0-12.8-6.4-25.6-16-35.2s-22.4-16-35.2-16zM390.4 185.6c-22.4 0-41.6 19.2-41.6 41.6v44.8c0 22.4 19.2 41.6 41.6 41.6s41.6-19.2 41.6-41.6v-44.8c0-22.4-19.2-41.6-41.6-41.6z" />
<glyph unicode="&#xeade;" glyph-name="poly-control-unmute" d="M406.4 732.8l-3.2 134.4c0 3.2 3.2 6.4 3.2 9.6h96c3.2-3.2 6.4-6.4 6.4-9.6v-243.2l89.6-89.6v332.8c0 44.8-41.6 92.8-89.6 92.8h-92.8c-32 0-51.2-9.6-67.2-28.8s-28.8-38.4-28.8-60.8v-44.8l86.4-92.8zM732.8 400v217.6c0 22.4-19.2 51.2-38.4 51.2v0c-22.4 0-38.4-32-38.4-51.2v-131.2l76.8-86.4zM403.2 310.4l108.8 6.4c22.4 0 44.8 9.6 60.8 25.6l-60.8 60.8c0-3.2-3.2-3.2-3.2-6.4h-96c-3.2 3.2-6.4 6.4-6.4 9.6v99.2l-89.6 89.6v-192c0-22.4 9.6-41.6 25.6-60.8 12.8-19.2 35.2-32 60.8-32zM659.2 32h-163.2v76.8c0 22.4-19.2 38.4-38.4 38.4-22.4 0-38.4-19.2-38.4-38.4v-76.8h-166.4c-25.6 0-44.8-22.4-44.8-48s19.2-48 44.8-48h406.4c25.6 0 44.8 22.4 44.8 48s-19.2 48-44.8 48zM316.8 185.6l278.4 6.4c0 0 0 0 0 0 35.2 0 70.4 6.4 96 32l-54.4 51.2c-9.6-9.6-25.6-19.2-41.6-19.2v0h-278.4c-16 0-28.8 6.4-41.6 19.2s-19.2 28.8-19.2 44.8l6.4 288c0 22.4-6.4 41.6-38.4 41.6v0c-32 0-41.6-19.2-41.6-41.6l-3.2-288c0-38.4 12.8-70.4 38.4-96 28.8-25.6 60.8-38.4 99.2-38.4zM960 60.8v0c-16-16-41.6-16-54.4 0l-841.6 838.4c-16 16-16 41.6 0 57.6v0c16 16 41.6 16 54.4 0l841.6-841.6c16-12.8 16-38.4 0-54.4z" />
<glyph unicode="&#xeadf;" glyph-name="poly-control-unvideo" d="M851.2 28.8v0c-16-16-38.4-16-51.2 0l-790.4 787.2c-16 16-16 38.4 0 51.2v0c16 16 38.4 16 51.2 0l787.2-787.2c16-12.8 16-38.4 3.2-51.2zM985.6 249.6c-6.4 0-16 3.2-22.4 6.4l-163.2 108.8c-9.6 6.4-16 19.2-16 32v147.2c0 12.8 6.4 25.6 16 32l163.2 108.8c12.8 6.4 25.6 9.6 38.4 3.2s19.2-19.2 19.2-32v-368c0-12.8-6.4-25.6-19.2-32-3.2-3.2-9.6-6.4-16-6.4zM860.8 419.2l86.4-60.8v224l-86.4-60.8v-102.4zM528 486.4c0 9.6-6.4 19.2-16 25.6l-22.4 12.8 38.4-38.4zM352 444.8v-25.6c0-22.4 25.6-38.4 44.8-25.6l3.2 3.2-48 48zM300.8 704h342.4c22.4 0 28.8-9.6 28.8-28.8v-342.4l83.2-73.6c0 6.4 12.8 16 12.8 22.4v393.6c0 60.8-60.8 92.8-121.6 92.8h-393.6c-9.6 0-16 3.2-22.4 3.2l70.4-67.2zM553.6 256h-300.8c-19.2 0-28.8 6.4-28.8 25.6v300.8l-96 76.8v-374.4c0-64 64-124.8 124.8-124.8h374.4l-73.6 96z" />
<glyph unicode="&#xeae0;" glyph-name="poly-control-user" d="M515.2 969.6c-188.8 0-342.4-153.6-342.4-342.4 0-118.4 64-227.2 163.2-291.2-134.4-60.8-233.6-182.4-272-326.4-3.2-12.8 0-35.2 9.6-48 3.2-12.8 16-25.6 25.6-25.6h6.4c22.4 0 41.6 25.6 44.8 44.8 41.6 169.6 192 307.2 361.6 307.2h3.2c89.6 0 176 32 243.2 99.2 64 64 99.2 150.4 99.2 240 0 188.8-153.6 342.4-342.4 342.4zM512 374.4c-137.6 0-249.6 112-249.6 249.6s112 249.6 249.6 249.6c137.6 0 249.6-112 249.6-249.6s-112-249.6-249.6-249.6zM931.2-64h-12.8c-22.4 0-41.6 12.8-44.8 35.2v0c-19.2 89.6-73.6 169.6-147.2 220.8l-22.4 16c-22.4 12.8-25.6 38.4-16 64 12.8 22.4 38.4 28.8 64 16h3.2l25.6-16c89.6-64 153.6-160 182.4-272v0c6.4-25.6-9.6-48-25.6-57.6l-6.4-6.4z" />
<glyph unicode="&#xeae1;" glyph-name="poly-control-video" d="M579.2 92.8h-451.2c-70.4 0-128 57.6-128 128v454.4c0 70.4 57.6 128 128 128h451.2c70.4 0 128-57.6 128-128v-451.2c0-73.6-57.6-131.2-128-131.2zM128 716.8c-22.4 0-41.6-19.2-41.6-41.6v-451.2c0-22.4 19.2-41.6 41.6-41.6h451.2c22.4 0 41.6 19.2 41.6 41.6v451.2c0 22.4-19.2 41.6-41.6 41.6h-451.2zM982.4 201.6c-9.6 0-16 3.2-25.6 6.4l-188.8 128c-12.8 9.6-19.2 22.4-19.2 35.2v166.4c0 12.8 6.4 28.8 19.2 35.2l188.8 128c12.8 9.6 28.8 9.6 44.8 3.2 12.8-6.4 22.4-22.4 22.4-38.4v-422.4c0-16-9.6-32-22.4-38.4-6.4 0-12.8-3.2-19.2-3.2zM835.2 396.8l102.4-67.2v259.2l-102.4-67.2v-124.8zM297.6 560l131.2-73.6c22.4-12.8 22.4-48 0-60.8l-131.2-73.6c-22.4-12.8-51.2 3.2-51.2 28.8v150.4c0 25.6 28.8 41.6 51.2 28.8z" />
<glyph unicode="&#xeae2;" glyph-name="poly-nav-facility" d="M1001.6 729.6l-208 208c-28.8 28.8-73.6 28.8-102.4 0l-208-208c-28.8-28.8-28.8-73.6 0-102.4l208-208c28.8-28.8 73.6-28.8 102.4 0l208 208c28.8 28.8 28.8 73.6 0 102.4v0 0zM742.4 470.4l-208 208 208 208 208-208-208-208zM368 899.2h-294.4c-41.6 0-73.6-32-73.6-73.6v-294.4c0-41.6 32-73.6 73.6-73.6h294.4c41.6 0 73.6 32 73.6 73.6v294.4c0 41.6-35.2 73.6-73.6 73.6v0 0zM368 377.6h-294.4c-41.6 0-73.6-32-73.6-73.6v-294.4c0-41.6 32-73.6 73.6-73.6h294.4c41.6 0 73.6 32 73.6 73.6v294.4c0 38.4-35.2 73.6-73.6 73.6v0 0zM889.6 377.6h-294.4c-41.6 0-73.6-32-73.6-73.6v-294.4c0-41.6 32-73.6 73.6-73.6h294.4c41.6 0 73.6 32 73.6 73.6v294.4c0 38.4-32 73.6-73.6 73.6v0 0z" />
<glyph unicode="&#xeae3;" glyph-name="poly-nav-home" d="M1004.8 512v0l-432 384c-12.8 19.2-32 32-57.6 32v0 0 0c-19.2 0-38.4-9.6-51.2-22.4v0l-441.6-390.4c-12.8-12.8-22.4-32-22.4-51.2 0-48 73.6-48 73.6-48h54.4v-256c0-105.6 6.4-192 108.8-192h547.2c105.6 0 108.8 86.4 108.8 188.8v259.2h57.6c38.4 0 70.4 19.2 70.4 57.6 3.2 19.2-3.2 25.6-16 38.4zM512 92.8c-76.8 0-137.6 60.8-137.6 134.4s60.8 134.4 137.6 134.4 137.6-60.8 137.6-134.4-64-134.4-137.6-134.4z" />
<glyph unicode="&#xeae4;" glyph-name="poly-nav-log" d="M832-51.2h-640c-70.4 0-128 57.6-128 128v704c0 70.4 57.6 128 128 128h32v-96c0-19.2 12.8-32 32-32h512c19.2 0 32 12.8 32 32v96h32c70.4 0 128-57.6 128-128v-704c0-70.4-57.6-128-128-128v0zM320 588.8h-64v-64h64v64zM320 396.8h-64v-64h64v64zM320 204.8h-64v-64h64v64zM768 588.8h-384v-64h384v64zM768 396.8h-384v-64h384v64zM768 204.8h-384v-64h384v64zM704 844.8h-384c-19.2 0-32 12.8-32 32v64c0 19.2 12.8 32 32 32h384c19.2 0 32-12.8 32-32v-64c0-19.2-12.8-32-32-32v0z" />
<glyph unicode="&#xeae5;" glyph-name="poly-nav-meeting" d="M1024 585.6c0 172.8-137.6 310.4-310.4 310.4h-403.2c-172.8 0-310.4-137.6-310.4-310.4v-275.2c0-172.8 137.6-310.4 310.4-310.4h403.2c172.8 0 310.4 137.6 310.4 310.4v275.2zM454.4 675.2c19.2 22.4 48 32 73.6 28.8 38.4-3.2 67.2-35.2 73.6-70.4 3.2-9.6 0-22.4 0-32 60.8-28.8 102.4-83.2 115.2-147.2-25.6-3.2-51.2 12.8-60.8 35.2-16 32-44.8 57.6-76.8 70.4-19.2-22.4-51.2-32-80-25.6-32 6.4-57.6 32-64 64-6.4 25.6 0 54.4 19.2 76.8zM419.2 310.4c-6.4-41.6-41.6-73.6-86.4-73.6-41.6 0-80 35.2-83.2 76.8s22.4 76.8 60.8 89.6c0 3.2 0 6.4 0 6.4 0 67.2 35.2 128 86.4 166.4 12.8-22.4 12.8-48-3.2-67.2-25.6-28.8-38.4-67.2-35.2-105.6v0c41.6-9.6 67.2-48 60.8-92.8zM777.6 307.2c-6.4-32-32-57.6-64-64-22.4-6.4-48 0-67.2 12.8-64-51.2-150.4-60.8-224-25.6 16 22.4 41.6 32 67.2 25.6 44.8-6.4 92.8 3.2 128 35.2-6.4 16-9.6 35.2-3.2 54.4 6.4 32 32 64 64 64v0c28.8 0 57.6-3.2 80-22.4 16-22.4 25.6-51.2 19.2-80z" />
<glyph unicode="&#xeae6;" glyph-name="poly-nav-meetingroom" d="M867.2 857.6h-515.2c32-41.6 35.2-153.6 0-192 0 0 80-32 80-96 0-44.8 3.2-249.6 3.2-249.6v-51.2h432c70.4 0 124.8 57.6 124.8 124.8v339.2c0 67.2-57.6 124.8-124.8 124.8zM281.6 608h-144c-57.6 0-105.6-48-105.6-105.6v-188.8c0-48 32-86.4 73.6-102.4v-220.8h208v220.8c41.6 12.8 73.6 54.4 73.6 102.4v188.8c0 57.6-48 105.6-105.6 105.6zM211.2 652.8c67.2 0 118.4 54.4 118.4 118.4 0 67.2-54.4 118.4-118.4 118.4-67.2 0-118.4-54.4-118.4-118.4-3.2-64 51.2-118.4 118.4-118.4z" />
<glyph unicode="&#xeae7;" glyph-name="poly-nav-site" d="M720 896h-416c-169.6 0-304-134.4-304-304v-288c0-169.6 134.4-304 304-304h416c166.4 0 304 134.4 304 304v288c0 169.6-134.4 304-304 304zM736 144c-54.4 0-96 44.8-96 96 0 44.8 32 83.2 76.8 96v80h-390.4v-83.2c41.6-9.6 73.6-48 73.6-92.8 0-54.4-41.6-96-96-96s-96 44.8-96 96c0 44.8 32 83.2 73.6 92.8v102.4c0 12.8 9.6 22.4 22.4 22.4h192v83.2c-41.6 9.6-73.6 48-73.6 92.8 0 54.4 41.6 96 96 96s96-44.8 96-96c0-44.8-32-83.2-73.6-92.8v-83.2h195.2c12.8 0 22.4-9.6 22.4-22.4v-102.4c41.6-9.6 73.6-48 73.6-92.8 0-54.4-41.6-96-96-96z" />
<glyph unicode="&#xeae8;" glyph-name="poly-nav-statistics" d="M1024 592c0 169.6-134.4 304-304 304h-416c-169.6 0-304-134.4-304-304v-288c0-169.6 134.4-304 304-304h416c166.4 0 304 134.4 304 304v288zM768 384h-86.4c-12.8 0-22.4 9.6-28.8 0l-83.2-160c-6.4-12.8-22.4-6.4-25.6 6.4l-131.2 339.2c-3.2 6.4-12.8 9.6-16 0l-51.2-147.2c-6.4-12.8-16-38.4-32-38.4h-57.6v96h35.2c12.8 0 25.6 9.6 32 22.4l70.4 185.6c3.2 9.6 19.2 12.8 25.6 0l131.2-336c3.2-6.4 12.8-6.4 16 0l48 112c6.4 12.8 16 19.2 28.8 19.2h128v-99.2h-3.2z" />
<glyph unicode="&#xeae9;" glyph-name="poly-nav-template" d="M1017.6 796.8c0 89.6-80 163.2-179.2 163.2h-659.2c-99.2 0-179.2-73.6-179.2-163.2v-700.8c0-86.4 80-160 179.2-160h659.2c99.2 0 179.2 73.6 179.2 163.2 0 0 0 697.6 0 697.6zM601.6 662.4h-409.6c-28.8 0-51.2 22.4-51.2 51.2v0c0 28.8 22.4 51.2 51.2 51.2h409.6c28.8 0 51.2-22.4 51.2-51.2v0c0-28.8-22.4-51.2-51.2-51.2zM515.2 140.8h-323.2c-28.8 0-51.2 22.4-51.2 51.2v0c0 28.8 22.4 51.2 51.2 51.2h323.2c28.8 0 51.2-22.4 51.2-51.2v0c0-28.8-22.4-51.2-51.2-51.2zM832 400h-640c-28.8 0-51.2 22.4-51.2 51.2v0c0 28.8 22.4 51.2 51.2 51.2h640c28.8 0 51.2-22.4 51.2-51.2v0c0-28.8-22.4-51.2-51.2-51.2z" />
<glyph unicode="&#xeaea;" glyph-name="poly-nav-user" d="M518.4 486.4c131.2 0 236.8 105.6 236.8 236.8s-105.6 236.8-236.8 236.8-236.8-105.6-236.8-236.8c0-131.2 105.6-236.8 236.8-236.8zM640 457.6c-12.8 6.4-25.6 3.2-38.4-12.8l-86.4-112-86.4 112c-9.6 12.8-25.6 19.2-38.4 12.8-54.4-28.8-281.6-246.4-281.6-460.8 0-35.2 16-60.8 38.4-60.8h726.4c22.4 0 38.4 28.8 38.4 60.8 6.4 214.4-217.6 432-272 460.8z" />
</font>
</defs>
</svg>
